<svg width="1093" height="763" viewBox="0 0 1093 763" fill="none" xmlns="http://www.w3.org/2000/svg">
<path d="M284.982 657.493C283.142 651.782 281.264 646.048 279.17 640.354C278.133 637.516 276.587 634.718 275.276 631.897C274.318 629.863 273.222 627.828 272.459 625.776C271.421 623.019 271.891 619.846 269.464 617.516C266.373 614.545 265.512 611.51 264.514 608.343C263.985 606.655 262.674 605.054 261.637 603.429C260.62 601.823 259.367 600.256 258.467 598.632C257.156 596.245 256.197 593.823 254.847 591.435C253.928 589.811 252.499 588.262 251.521 586.661C250.21 584.505 249.251 582.314 247.9 580.181C246.941 578.655 245.376 577.227 244.515 575.681C241.384 570.163 238.469 564.625 235.396 559.107C235.064 558.52 234.125 558.031 233.733 557.444C230.348 552.376 226.121 547.425 223.91 542.22C221.151 535.723 214.889 529.755 214.302 522.965C214.283 522.808 214.185 522.632 213.989 522.534C208.863 519.853 209.547 516.194 208.412 512.848C208.079 511.85 208.001 510.676 207.004 509.893C202.072 506 202.405 501.538 201.642 497.174C201.309 495.237 200.683 493.182 199.157 491.441C195.223 486.999 195.263 482.283 194.656 477.586C194.5 476.413 194.245 475.239 193.971 474.065C191.447 463.987 188.61 453.929 190.997 443.695C192.504 437.198 193.697 430.702 195.204 424.205C195.752 421.798 196.613 419.411 197.67 417.063C198.629 414.93 200.233 412.895 201.27 410.762C202.698 407.827 202.366 404.598 206.925 402.25C207.493 401.956 207.59 401.389 207.786 400.919C209.215 397.671 210.486 394.579 214.009 391.546C218.998 387.261 221.66 382.173 225.456 377.477C226.141 376.616 226.161 376.009 225.593 375.579C227.217 373.916 228.88 372.252 230.505 370.589C231.248 369.825 231.953 369.062 232.696 368.319C234.203 366.753 235.827 365.208 237.177 363.583C238.077 362.507 238.547 361.353 239.271 360.237C240.973 357.595 242.754 354.993 244.437 352.352C245.004 351.471 244.848 350.297 245.885 349.671C251.051 346.559 250.699 342.704 251.364 338.967C251.579 337.715 251.501 336.364 252.401 335.249C257.567 328.948 258.35 322.295 258.33 315.563C258.291 307.051 258.487 298.539 258.35 290.027C258.311 287.855 257.645 285.664 256.941 283.511C255.102 277.778 253.223 272.064 251.129 266.37C250.092 263.532 248.546 260.734 247.235 257.916C246.276 255.881 245.181 253.846 244.417 251.792C243.38 249.032 243.85 245.862 241.424 243.534C238.332 240.559 237.471 237.526 236.473 234.357C235.944 232.673 234.633 231.069 233.596 229.445C232.579 227.84 231.327 226.275 230.427 224.651C229.115 222.264 228.157 219.837 226.806 217.45C225.887 215.825 224.458 214.279 223.48 212.675C222.169 210.523 221.21 208.331 219.86 206.198C218.901 204.672 217.335 203.243 216.474 201.697C213.343 196.198 210.428 190.641 207.356 185.123C207.023 184.536 206.083 184.047 205.692 183.46C202.307 178.392 198.081 173.441 195.869 168.236C193.11 161.739 186.848 155.771 186.262 148.981C186.242 148.825 186.144 148.649 185.948 148.551C180.821 145.87 181.506 142.21 180.371 138.864C180.039 137.867 179.96 136.693 178.962 135.91C174.031 132.016 174.364 127.554 173.601 123.19C173.268 121.253 172.642 119.198 171.115 117.457C167.183 113.015 167.222 108.299 166.615 103.603C166.458 102.429 166.204 101.255 165.93 100.081C163.406 90.0033 160.569 79.945 162.956 69.711C164.462 63.2145 165.656 56.7179 167.163 50.2214C167.711 47.8145 168.572 45.4272 169.629 43.0791C170.587 40.9462 172.192 38.9111 173.229 36.7782C174.658 33.843 174.325 30.6143 178.884 28.2661C179.452 27.9726 179.55 27.4051 179.745 26.9355C181.174 23.6872 182.445 20.5954 185.968 17.5624C190.958 13.277 193.619 8.18929 197.415 3.49299C198.746 1.84927 197.63 1.10569 194.715 0.870876C192.699 0.714328 190.664 0.596924 188.629 0.596924C179.432 0.596924 170.255 0.636056 161.058 0.675189C154.6 0.714328 149.376 2.96465 146.812 6.21295C143.819 10.0287 140.237 13.6879 136.911 17.4254C135.541 18.9713 133.819 20.4389 132.821 22.0239C129.671 27.0529 126.813 32.1601 123.8 37.2087C123.487 37.7175 122.763 38.1675 122.411 38.6763C121.491 39.9873 120.297 41.2788 119.886 42.6486C118.654 46.8557 118.556 51.1998 116.482 55.2699C113.39 61.3752 112.314 67.5393 112.607 73.7421C113.096 84.2698 113.195 94.7975 117.93 105.207C121.863 113.896 123.703 122.838 126.579 131.664C127.049 133.131 128.203 134.52 128.946 135.949C132.743 143.267 136.5 150.585 140.257 157.904C140.805 158.961 141.098 160.057 141.744 161.094C144.21 165.125 146.753 169.195 149.356 173.382C153.798 177.452 157.32 182.697 160.353 187.667C165.343 195.866 170.078 204.417 173.855 213.301C174.422 213.869 174.892 214.514 175.088 215.277C175.499 216.823 176.399 218.33 177.221 219.817C178.884 222.811 180.645 225.785 182.387 228.76C183.052 229.875 183.815 230.991 184.422 232.125C188.316 239.405 192.327 246.684 195.986 254.003C198.061 258.171 199.529 262.437 201.231 266.663C201.877 268.268 202.659 269.892 203.012 271.516C204.009 276.134 204.772 280.752 205.673 285.39C207.649 295.33 210.663 305.251 208.549 315.309C207.786 318.91 207.375 322.53 206.456 326.13C205.32 330.553 203.872 334.955 202.464 339.358C201.916 341.06 201.348 342.783 200.292 344.407C196.965 349.494 192.679 354.406 190.136 359.591C189.686 360.491 189.158 361.372 188.61 362.233C186.046 362.096 183.502 362.018 180.919 362.077C180.293 362.096 179.706 362.018 179.099 361.998C176.928 363.916 174.129 364.268 167.222 364.288C152.565 364.327 137.909 364.288 123.252 364.209C123.526 363.936 123.8 363.681 124.055 363.407C124.329 363.134 124.368 362.801 124.563 362.507C126.324 359.963 128.242 357.439 129.847 354.876C132.547 350.59 135.639 346.344 137.498 341.941C139.905 336.208 141.45 330.337 143.055 324.506C146.206 312.981 146.049 301.396 143.349 289.851C142.194 284.939 140.648 280.048 139.279 275.156C138.105 270.968 137.048 266.741 135.678 262.573C134.465 258.875 132.919 255.196 131.432 251.537C130.884 250.148 130.708 248.563 129.299 247.467C125.248 244.277 125.268 240.657 124.289 237.096C123.878 235.569 122.685 234.102 121.745 232.635C120.67 230.951 119.417 229.308 118.38 227.625C116.834 225.12 115.445 222.576 113.938 220.052C113.41 219.152 112.588 218.31 112.177 217.391C111.864 216.686 111.629 216.06 111.473 215.493C105.308 205.885 100.886 195.24 94.1548 185.984C92.9611 184.536 91.7479 183.108 90.4172 181.777C88.4409 179.84 87.267 177.472 86.797 175.007C86.0537 174.224 85.3491 173.226 84.5468 171.954C83.9404 170.995 83.8618 169.939 83.2358 168.98C81.6312 166.475 79.8312 164.029 78.2069 161.524C77.4439 160.35 76.8763 159.137 76.2497 157.924C74.9191 155.36 73.7064 152.777 72.2971 150.233C71.4365 148.688 70.0665 147.22 69.3422 145.654C68.1486 143.072 68.3249 140.136 66.0746 137.906C63.2174 135.068 62.3568 132.172 61.6134 129.139C61.0845 127.045 60.5175 124.893 59.1672 122.916C56.2906 118.729 54.8426 114.424 54.6273 109.982C54.5882 109.043 54.3925 108.084 54.0207 107.164C48.7178 93.4275 46.9371 79.534 48.3265 65.5237C48.5808 62.8625 48.757 60.0642 50.4203 57.5985C53.9425 52.3739 54.4708 46.9731 55.4492 41.5723C55.6449 40.5156 56.545 39.4981 57.3082 38.5002C58.4042 37.0717 59.8909 35.7019 60.7914 34.2539C63.981 29.0684 66.955 23.8437 70.1058 18.6582C70.5555 17.9342 71.6908 17.3471 72.3758 16.6622C75.741 13.2965 79.3219 9.98957 82.2572 6.52601C83.5294 5.01929 83.4317 3.1799 84.0577 1.18396C82.8838 0.988279 81.7878 0.636062 80.7115 0.636062C67.1706 0.7339 53.6098 0.792604 40.0688 1.08612C38.4446 1.12526 36.3704 2.27977 35.4507 3.19946C32.0654 6.54561 29.0911 10.0091 25.9015 13.414C25.4514 13.9032 24.61 14.275 24.1013 14.7446C22.9468 15.8209 21.6161 16.8775 20.853 18.032C17.8787 22.5914 15.1 27.1898 12.2235 31.7883C11.9886 32.1601 11.7538 32.571 11.2842 32.845C7.23364 35.3301 7.07711 38.4414 6.33354 41.4941C5.80516 43.6661 4.84634 45.8186 4.02449 47.9711C2.69386 51.4933 0.306565 54.996 0.189157 58.5376C-0.241339 70.748 0.208727 82.9785 0.130455 95.1888C0.0913188 101.235 1.44151 107.125 5.2964 112.839C6.23568 114.229 6.37267 115.774 6.90099 117.242C9.58178 124.717 12.243 132.192 14.9825 139.667C15.2369 140.351 16.0392 140.978 16.411 141.643C18.0352 144.559 19.6202 147.494 21.2052 150.41C24.0817 155.751 26.9582 161.074 29.8738 166.416C30.0695 166.788 30.6957 167.081 30.9501 167.434C32.3394 169.488 33.7678 171.543 35.0007 173.617C38.0141 178.666 40.9297 183.753 43.8845 188.802C43.9628 188.959 44.1976 189.076 44.2954 189.213C48.1308 195.024 52.1618 200.778 55.7427 206.628C59.1868 212.264 62.1608 217.978 65.37 223.653C65.5463 223.946 65.9573 224.201 66.1336 224.514C67.4642 226.822 68.8139 229.132 70.0862 231.441C71.2012 233.456 72.1798 235.511 73.2757 237.526C74.5278 239.855 75.937 242.164 77.111 244.512C78.2069 246.704 79.1069 248.934 80.0266 251.165C83.7051 259.971 87.3843 268.777 90.9849 277.582C91.3565 278.482 91.1415 279.461 91.2392 280.419C91.4542 282.552 91.7086 284.665 91.9242 286.779C92.9022 296.504 95.2311 306.132 93.3328 316.014C91.1802 327.324 88.519 338.497 83.0011 349.475C82.5115 350.453 81.6115 351.373 80.9069 352.312C79.5763 354.112 78.1676 355.893 76.9543 357.732C75.8393 359.416 75.0954 361.176 73.8624 362.84C72.7278 364.346 71.0451 365.736 69.7729 367.204C66.681 370.784 63.707 374.405 60.6545 378.005C60.3608 378.357 59.7152 378.612 59.3042 378.925C58.4822 379.57 57.6995 380.236 56.8973 380.901C57.6604 381.116 58.4233 381.41 59.2065 381.644C57.4451 383.562 55.7232 385.48 53.9425 387.378C53.4924 387.868 52.651 388.239 52.1422 388.709C50.9877 389.785 49.6571 390.842 48.8939 391.996C45.9196 396.555 43.1409 401.154 40.2644 405.752C40.0296 406.124 39.7948 406.535 39.3251 406.809C35.2746 409.295 35.1181 412.405 34.3745 415.458C33.8461 417.63 32.8873 419.783 32.0654 421.935C30.7348 425.457 28.3475 428.96 28.2301 432.502C27.7996 444.712 28.2497 456.942 28.1714 469.153C28.1323 475.199 29.4824 481.089 33.3374 486.803C34.2766 488.193 34.4136 489.738 34.9419 491.206C37.6228 498.681 40.284 506.156 43.0235 513.631C43.2779 514.316 44.0802 514.942 44.452 515.607C46.0761 518.523 47.6611 521.458 49.2462 524.373C52.1226 529.716 54.9991 535.038 57.9146 540.38C58.1105 540.752 58.7365 541.046 58.9909 541.398C60.3805 543.452 61.8088 545.507 63.0417 547.581C66.055 552.63 68.9706 557.718 71.9255 562.766C72.0035 562.923 72.2388 563.04 72.3364 563.177C76.1717 568.969 80.2029 574.742 83.7838 580.591C87.2277 586.227 90.2022 591.944 93.4109 597.614C93.5872 597.909 93.9981 598.164 94.1744 598.476C95.5051 600.788 96.8553 603.094 98.127 605.406C99.2426 607.418 100.221 609.476 101.317 611.493C102.569 613.817 103.978 616.129 105.152 618.476C106.248 620.666 107.148 622.898 108.067 625.129C111.747 633.932 115.425 642.741 119.026 651.545C119.397 652.446 119.182 653.423 119.26 654.383C119.476 656.516 119.73 658.631 119.945 660.741C120.924 670.469 123.252 680.094 121.354 689.978C119.202 701.29 116.541 712.463 111.022 723.44C110.533 724.417 109.633 725.336 108.929 726.278C107.598 728.076 106.189 729.856 104.976 731.694C103.86 733.382 103.117 735.139 101.884 736.804C100.749 738.313 99.0663 739.7 97.7946 741.168C94.7028 744.746 91.7282 748.371 88.6756 751.972C88.382 752.318 87.7363 752.579 87.3253 752.891C86.5034 753.532 85.7207 754.197 84.9184 754.868C86.523 755.295 88.0883 756.099 89.7126 756.116C101.219 756.33 112.725 756.411 124.231 756.469C131.98 756.509 136.774 754.532 139.142 750.619C139.69 749.741 140.472 748.879 141.294 748.058C144.856 744.492 148.495 740.954 152.057 737.394C152.331 737.116 152.369 736.787 152.565 736.492C154.327 733.949 156.244 731.423 157.849 728.862C160.549 724.573 163.641 720.33 165.5 715.926C167.906 710.192 169.452 704.319 171.057 698.492C174.207 686.966 174.051 675.383 171.351 663.834C170.196 658.926 168.65 654.03 167.28 649.14C166.106 644.949 165.05 640.724 163.68 636.556C162.466 632.857 160.921 629.181 159.433 625.522C158.885 624.129 158.71 622.545 157.301 621.452C153.25 618.262 153.27 614.643 152.291 611.077C151.88 609.551 150.687 608.088 149.747 606.62C148.671 604.932 147.419 603.291 146.382 601.609C144.836 599.106 143.446 596.562 141.94 594.036C141.412 593.135 140.59 592.297 140.179 591.372C140.12 591.239 140.081 591.117 140.042 590.984C139.279 590.221 138.594 589.378 138.065 588.441C134.015 581.123 129.456 574.037 125.19 566.856C121.609 560.848 117.304 555.33 114.721 548.853C114.016 548.09 113.332 547.131 112.568 545.918C111.962 544.959 111.884 543.903 111.257 542.924C109.652 540.42 107.852 537.973 106.228 535.469C105.465 534.295 104.897 533.081 104.271 531.868C102.941 529.305 101.728 526.722 100.319 524.178C99.4576 522.632 98.0877 521.165 97.364 519.599C96.1704 517.016 96.3461 514.081 94.0958 511.85C91.2392 509.013 90.3779 506.117 89.6346 503.084C89.1063 500.99 88.5386 498.837 87.1884 496.861C84.3121 492.674 82.8641 488.388 82.6485 483.927C82.6098 482.988 82.4138 482.029 82.0422 481.109C76.7393 467.372 74.9584 453.479 76.348 439.468C76.6023 436.807 76.7786 434.009 78.4416 431.543C81.9641 426.319 82.4924 420.918 83.4705 415.517C83.6664 414.46 84.5664 413.442 85.3294 412.445C86.4254 411.016 87.9126 409.647 88.8126 408.199C90.7889 404.989 92.6872 401.76 94.5854 398.551C95.6224 398.121 96.8744 397.808 98.479 397.671C101.219 397.456 103.978 397.182 106.717 397.162C117.343 397.123 127.968 397.143 138.594 397.182C139.827 397.065 141.098 397.006 142.351 397.006C148.202 397.045 154.072 397.221 159.922 397.436C157.144 401.976 154.542 406.555 151.821 411.094C151.509 411.603 150.784 412.053 150.432 412.562C149.513 413.873 148.319 415.164 147.908 416.534C146.675 420.742 146.578 425.086 144.503 429.156C141.412 435.261 140.335 441.425 140.629 447.628C141.118 458.155 141.216 468.683 145.951 479.093C149.884 487.782 151.724 496.724 154.601 505.549C155.07 507.017 156.224 508.407 156.968 509.835C160.764 517.153 164.521 524.472 168.278 531.79C168.826 532.847 169.12 533.943 169.766 534.999C172.544 539.539 175.401 544.118 178.376 548.892C180.997 551.006 183.267 553.608 184.989 556.445C187.22 560.125 188.649 564.331 190.371 568.245C192.112 572.178 194.206 575.935 196.769 579.378C199.352 582.528 201.994 585.661 203.97 589.221C204.909 590.904 205.438 592.667 205.653 594.406C207.199 597.169 208.823 599.903 210.428 602.666C211.093 603.782 211.856 604.898 212.463 606.031C216.357 613.308 220.368 620.591 224.028 627.909C226.102 632.077 227.569 636.343 229.272 640.568C229.917 642.175 230.7 643.799 231.053 645.423C232.05 650.042 232.814 654.66 233.714 659.296C235.69 669.238 238.703 679.157 236.59 689.215C235.827 692.816 235.416 696.435 234.496 700.036C233.361 704.458 231.913 708.862 230.505 713.261C229.957 714.966 229.389 716.689 228.332 718.313C225.006 723.4 220.72 728.313 218.177 733.498C215.379 739.191 210.037 744.105 204.734 749.093C203.187 750.538 202.581 752.342 202.111 754.041C201.7 755.532 203.149 756.295 206.26 756.295C217.472 756.33 228.685 756.469 239.897 756.648C246.394 756.746 249.192 755.688 251.051 752.261C251.443 751.521 252.244 750.833 252.929 750.151C254.788 748.249 256.687 746.353 258.565 744.434C259.308 743.671 260.013 742.908 260.757 742.168C262.263 740.602 263.888 739.053 265.238 737.428C266.138 736.353 266.608 735.197 267.331 734.082C269.034 731.44 270.815 728.839 272.497 726.197C273.065 725.319 272.908 724.145 273.945 723.515C279.111 720.405 278.759 716.55 279.424 712.816C279.64 711.562 279.561 710.209 280.461 709.093C285.628 702.793 286.411 696.14 286.391 689.411C286.352 680.897 286.548 672.388 286.411 663.874C286.352 661.839 285.667 659.649 284.982 657.493Z" fill="black"/>
<path d="M1087.17 657.422C1085.33 651.711 1083.46 645.977 1081.36 640.284C1080.32 637.445 1078.78 634.648 1077.47 631.827C1076.51 629.792 1075.41 627.758 1074.65 625.706C1073.61 622.943 1074.08 619.775 1071.65 617.446C1068.56 614.475 1067.7 611.44 1066.7 608.272C1066.17 606.584 1064.87 604.983 1063.83 603.359C1062.81 601.752 1061.55 600.186 1060.66 598.561C1059.35 596.174 1058.39 593.752 1057.03 591.365C1056.11 589.741 1054.69 588.192 1053.71 586.59C1052.4 584.434 1051.44 582.244 1050.09 580.111C1049.13 578.585 1047.57 577.156 1046.7 575.611C1043.57 570.092 1040.66 564.555 1037.58 559.036C1037.25 558.45 1036.31 557.96 1035.92 557.373C1032.54 552.305 1028.31 547.354 1026.1 542.149C1023.34 535.653 1017.08 529.684 1016.49 522.894C1016.47 522.738 1016.38 522.561 1016.18 522.464C1011.05 519.783 1011.74 516.124 1010.6 512.778C1010.27 511.779 1010.19 510.605 1009.19 509.823C1004.26 505.929 1004.59 501.467 1003.83 497.104C1003.5 495.166 1002.87 493.112 1001.35 491.37C997.41 486.928 997.451 482.213 996.844 477.516C996.688 476.342 996.433 475.168 996.162 473.994C993.636 463.916 990.797 453.858 993.185 443.624C994.693 437.128 995.884 430.631 997.393 424.134C997.942 421.727 998.803 419.34 999.861 416.992C1000.82 414.859 1002.42 412.824 1003.46 410.691C1004.89 407.756 1004.55 404.528 1009.12 402.179C1009.68 401.885 1009.78 401.318 1009.98 400.848C1011.4 397.6 1012.68 394.509 1016.2 391.476C1021.19 387.19 1023.85 382.102 1027.65 377.406C1028.33 376.545 1028.35 375.939 1027.78 375.508C1029.4 373.845 1031.07 372.182 1032.69 370.518C1033.44 369.755 1034.14 368.992 1034.88 368.248C1036.39 366.683 1038.02 365.137 1039.37 363.513C1040.27 362.437 1040.74 361.282 1041.46 360.167C1043.16 357.525 1044.94 354.923 1046.62 352.281C1047.2 351.4 1047.04 350.226 1048.07 349.6C1053.24 346.489 1052.89 342.634 1053.55 338.896C1053.77 337.644 1053.69 336.294 1054.59 335.178C1059.76 328.877 1060.54 322.224 1060.52 315.493C1060.48 306.981 1060.68 298.469 1060.54 289.957C1060.5 287.785 1059.84 285.593 1059.13 283.441C1057.29 277.707 1055.41 271.993 1053.32 266.299C1052.28 263.462 1050.73 260.663 1049.43 257.845C1048.47 255.811 1047.37 253.776 1046.61 251.721C1045.57 248.962 1046.04 245.792 1043.61 243.463C1040.52 240.489 1039.66 237.456 1038.66 234.286C1038.13 232.603 1036.82 230.998 1035.79 229.374C1034.77 227.769 1033.51 226.204 1032.62 224.58C1031.31 222.193 1030.35 219.766 1028.99 217.379C1028.07 215.755 1026.65 214.209 1025.67 212.604C1024.36 210.452 1023.4 208.26 1022.05 206.127C1021.09 204.601 1019.53 203.172 1018.66 201.627C1015.53 196.128 1012.62 190.571 1009.54 185.052C1009.21 184.466 1008.27 183.977 1007.88 183.389C1004.5 178.321 1000.27 173.37 998.057 168.165C995.3 161.669 989.04 155.701 988.451 148.91C988.433 148.754 988.335 148.578 988.138 148.48C983.011 145.8 983.693 142.14 982.56 138.794C982.225 137.796 982.15 136.622 981.15 135.839C976.219 131.945 976.555 127.483 975.792 123.12C975.456 121.183 974.832 119.128 973.306 117.386C969.37 112.944 969.41 108.229 968.803 103.532C968.647 102.358 968.393 101.184 968.121 100.01C965.595 89.9323 962.757 79.8746 965.144 69.6406C966.653 63.1441 967.844 56.6474 969.352 50.1508C969.902 47.744 970.763 45.3567 971.821 43.0085C972.774 40.8756 974.381 38.8405 975.416 36.7076C976.85 33.7724 976.514 30.5437 981.075 28.1955C981.641 27.902 981.74 27.3345 981.936 26.8649C983.364 23.6166 984.636 20.5249 988.156 17.4918C993.15 13.2064 995.809 8.11876 999.607 3.42243C1000.94 1.77872 999.82 1.03513 996.901 0.800319C994.89 0.643777 992.855 0.526367 990.82 0.526367C981.624 0.526367 972.445 0.565498 963.248 0.604632C956.792 0.643771 951.566 2.89409 949 6.14236C946.006 9.95817 942.428 13.6173 939.098 17.3549C937.728 18.9007 936.006 20.3683 935.012 21.9533C931.861 26.9823 929.006 32.0896 925.989 37.1381C925.677 37.6469 924.954 38.0969 924.601 38.6057C923.682 39.9168 922.486 41.2082 922.075 42.578C920.844 46.7851 920.746 51.1292 918.671 55.1994C915.578 61.3048 914.503 67.4683 914.798 73.6717C915.284 84.1994 915.382 94.7265 920.122 105.137C924.052 113.825 925.89 122.768 928.769 131.593C929.237 133.06 930.393 134.45 931.139 135.878C934.931 143.197 938.688 150.515 942.445 157.834C942.994 158.89 943.289 159.986 943.931 161.023C946.399 165.054 948.942 169.124 951.543 173.312C955.988 177.382 959.509 182.626 962.543 187.596C967.532 195.796 972.266 204.346 976.046 213.231C976.612 213.798 977.081 214.444 977.277 215.207C977.688 216.753 978.589 218.26 979.41 219.747C981.075 222.741 982.832 225.715 984.578 228.689C985.242 229.805 986.006 230.92 986.612 232.055C990.503 239.334 994.514 246.614 998.179 253.932C1000.25 258.1 1001.72 262.366 1003.42 266.593C1004.06 268.197 1004.85 269.821 1005.2 271.445C1006.2 276.063 1006.96 280.682 1007.86 285.319C1009.84 295.26 1012.85 305.18 1010.74 315.239C1009.98 318.839 1009.57 322.459 1008.65 326.06C1007.51 330.482 1006.06 334.885 1004.65 339.288C1004.1 340.99 1003.54 342.712 1002.48 344.336C999.156 349.424 994.867 354.336 992.323 359.521C991.873 360.421 991.346 361.302 990.797 362.163C988.237 362.026 985.693 361.948 983.11 362.006C982.485 362.026 981.896 361.948 981.289 361.928C979.115 363.845 976.318 364.198 969.41 364.218C954.757 364.256 940.098 364.218 925.44 364.139C925.717 363.865 925.989 363.611 926.243 363.337C926.52 363.063 926.555 362.73 926.752 362.437C928.515 359.893 930.434 357.368 932.035 354.805C934.734 350.52 937.827 346.274 939.688 341.871C942.093 336.137 943.642 330.267 945.243 324.436C948.393 312.91 948.237 301.325 945.538 289.78C944.382 284.869 942.838 279.977 941.468 275.085C940.295 270.897 939.237 266.671 937.867 262.503C936.653 258.804 935.11 255.126 933.619 251.466C933.075 250.077 932.896 248.492 931.486 247.396C927.439 244.207 927.457 240.587 926.48 237.025C926.07 235.499 924.873 234.031 923.937 232.564C922.861 230.881 921.607 229.237 920.567 227.554C919.023 225.05 917.636 222.506 916.127 219.982C915.601 219.082 914.775 218.24 914.364 217.32C914.052 216.616 913.821 215.99 913.659 215.422C907.497 205.814 903.058 195.169 896.341 185.914C895.151 184.466 893.937 183.037 892.607 181.707C890.63 179.769 889.457 177.402 888.989 174.936C888.243 174.153 887.538 173.155 886.735 171.883C886.128 170.925 886.053 169.868 885.422 168.909C883.821 166.405 882.018 163.958 880.394 161.454C879.631 160.28 879.064 159.066 878.44 157.853C877.11 155.29 875.897 152.707 874.486 150.163C873.625 148.617 872.255 147.149 871.532 145.584C870.336 143.001 870.515 140.066 868.267 137.835C865.405 134.998 864.544 132.102 863.804 129.068C863.272 126.975 862.706 124.822 861.359 122.846C858.481 118.659 857.03 114.354 856.816 109.911C856.775 108.972 856.585 108.014 856.232 107.093C850.926 93.3571 849.145 79.4636 850.538 65.4527C850.793 62.7915 850.966 59.9938 852.631 57.528C856.151 52.3033 856.677 46.9025 857.66 41.5017C857.856 40.4451 858.752 39.4275 859.515 38.4296C860.613 37.0011 862.099 35.6314 863.001 34.1834C866.191 28.9978 869.162 23.7732 872.313 18.5876C872.764 17.8636 873.902 17.2766 874.584 16.5917C877.949 13.226 881.532 9.91904 884.469 6.45548C885.74 4.94873 885.642 3.10934 886.266 1.1134C885.093 0.917728 883.995 0.565504 882.92 0.565504C869.382 0.663343 855.822 0.722048 842.278 1.01557C840.654 1.0547 838.579 2.20921 837.66 3.12891C834.273 6.47502 831.302 9.93857 828.111 13.3434C827.66 13.8326 826.822 14.2044 826.313 14.674C825.157 15.7503 823.828 16.807 823.065 17.9615C820.088 22.5208 817.307 27.1193 814.435 31.7178C814.198 32.0896 813.961 32.5005 813.492 32.7744C809.44 35.2596 809.284 38.3709 808.544 41.4235C808.013 43.5955 807.053 45.748 806.232 47.9005C804.903 51.4228 802.516 54.9254 802.4 58.4672C801.966 70.6775 802.417 82.9075 802.342 95.1184C802.302 101.165 803.649 107.055 807.504 112.769C808.446 114.158 808.579 115.704 809.111 117.171C811.793 124.646 814.452 132.121 817.192 139.596C817.446 140.281 818.25 140.907 818.619 141.572C820.244 144.488 821.828 147.423 823.411 150.339C826.29 155.681 829.169 161.003 832.082 166.346C832.278 166.717 832.903 167.011 833.157 167.363C834.55 169.418 835.978 171.473 837.209 173.547C840.22 178.595 843.14 183.683 846.093 188.732C846.174 188.888 846.405 189.006 846.504 189.143C850.342 194.954 854.371 200.707 857.954 206.558C861.394 212.193 864.371 217.907 867.579 223.582C867.758 223.876 868.168 224.13 868.342 224.443C869.671 226.752 871.024 229.061 872.295 231.37C873.411 233.386 874.388 235.44 875.486 237.456C876.735 239.784 878.145 242.094 879.318 244.442C880.417 246.633 881.318 248.864 882.238 251.095C885.914 259.9 889.596 268.706 893.191 277.511C893.567 278.412 893.353 279.39 893.446 280.349C893.665 282.482 893.92 284.595 894.133 286.708C895.11 296.434 897.44 306.061 895.544 315.943C893.388 327.254 890.729 338.427 885.209 349.404C884.723 350.383 883.821 351.303 883.116 352.242C881.787 354.042 880.376 355.823 879.162 357.662C878.047 359.345 877.307 361.106 876.07 362.77C874.937 364.276 873.255 365.665 871.983 367.133C868.891 370.714 865.914 374.334 862.862 377.935C862.567 378.287 861.926 378.541 861.515 378.854C860.689 379.5 859.908 380.165 859.105 380.831C859.868 381.046 860.631 381.339 861.417 381.574C859.654 383.492 857.931 385.409 856.151 387.307C855.7 387.797 854.862 388.169 854.353 388.638C853.197 389.714 851.868 390.771 851.105 391.925C848.128 396.485 845.348 401.084 842.475 405.682C842.238 406.054 842.007 406.465 841.533 406.739C837.486 409.224 837.325 412.335 836.585 415.388C836.053 417.56 835.099 419.712 834.273 421.864C832.943 425.387 830.556 428.89 830.44 432.431C830.007 444.642 830.458 456.872 830.382 469.082C830.342 475.129 831.689 481.019 835.544 486.733C836.486 488.122 836.625 489.668 837.151 491.136C839.833 498.61 842.492 506.085 845.232 513.56C845.486 514.245 846.29 514.871 846.66 515.537C848.284 518.452 849.868 521.387 851.457 524.303C854.33 529.645 857.209 534.968 860.122 540.31C860.319 540.682 860.943 540.975 861.197 541.327C862.59 543.382 864.018 545.436 865.249 547.511C868.266 552.559 871.18 557.647 874.134 562.696C874.214 562.852 874.446 562.97 874.544 563.107C878.382 568.899 882.411 574.671 885.995 580.521C889.434 586.157 892.411 591.874 895.619 597.544C895.798 597.839 896.208 598.093 896.382 598.405C897.711 600.717 899.064 603.024 900.336 605.336C901.451 607.347 902.428 609.405 903.526 611.423C904.781 613.746 906.185 616.058 907.359 618.405C908.457 620.596 909.359 622.827 910.278 625.058C913.954 633.862 917.636 642.671 921.237 651.474C921.607 652.376 921.393 653.353 921.468 654.312C921.682 656.445 921.937 658.561 922.156 660.671C923.133 670.399 925.463 680.023 923.561 689.908C921.411 701.22 918.752 712.393 913.232 723.37C912.74 724.347 911.844 725.266 911.139 726.208C909.81 728.006 908.399 729.786 907.185 731.624C906.07 733.312 905.324 735.069 904.093 736.734C902.96 738.242 901.278 739.63 900.006 741.098C896.914 744.676 893.937 748.3 890.885 751.901C890.59 752.248 889.943 752.502 889.532 752.82C888.711 753.462 887.931 754.127 887.128 754.797C888.735 755.225 890.295 756.028 891.919 756.046C903.428 756.26 914.931 756.341 926.439 756.398C934.191 756.439 938.983 754.462 941.353 750.549C941.896 749.67 942.682 748.809 943.503 747.982C947.064 744.422 950.705 740.884 954.266 737.323C954.538 737.046 954.578 736.716 954.775 736.422C956.538 733.878 958.451 731.352 960.058 728.792C962.757 724.503 965.85 720.26 967.711 715.855C970.115 710.121 971.659 704.248 973.266 698.422C976.416 686.896 976.26 675.312 973.561 663.763C972.404 658.85 970.861 653.96 969.491 649.07C968.318 644.879 967.26 640.654 965.89 636.486C964.676 632.787 963.127 629.11 961.642 625.451C961.092 624.058 960.919 622.475 959.509 621.382C955.457 618.191 955.48 614.573 954.503 611.006C954.087 609.48 952.896 608.012 951.954 606.55C950.879 604.862 949.63 603.22 948.59 601.538C947.046 599.035 945.653 596.492 944.15 593.966C943.619 593.064 942.798 592.226 942.387 591.301C942.33 591.168 942.289 591.047 942.249 590.914C941.486 590.151 940.804 589.307 940.272 588.371C936.226 581.053 931.665 573.967 927.399 566.785C923.815 560.778 919.515 555.26 916.931 548.783C916.226 548.02 915.538 547.061 914.775 545.847C914.168 544.889 914.093 543.832 913.469 542.854C911.862 540.349 910.064 537.903 908.44 535.398C907.677 534.224 907.104 533.011 906.48 531.798C905.151 529.234 903.937 526.652 902.526 524.108C901.665 522.561 900.295 521.094 899.573 519.528C898.382 516.946 898.555 514.011 896.307 511.779C893.446 508.942 892.584 506.047 891.844 503.013C891.313 500.919 890.746 498.767 889.399 496.791C886.521 492.603 885.076 488.318 884.856 483.856C884.821 482.917 884.625 481.958 884.249 481.039C878.949 467.302 877.168 453.408 878.555 439.398C878.81 436.737 878.989 433.938 880.648 431.472C884.174 426.248 884.7 420.847 885.677 415.447C885.873 414.389 886.775 413.372 887.538 412.374C888.636 410.945 890.122 409.576 891.024 408.128C893 404.919 894.896 401.69 896.792 398.481C897.833 398.05 899.081 397.737 900.688 397.6C903.428 397.385 906.185 397.111 908.925 397.092C919.549 397.053 930.179 397.072 940.804 397.111C942.035 396.994 943.306 396.935 944.561 396.935C950.41 396.974 956.283 397.15 962.133 397.365C959.353 401.905 956.751 406.484 954.029 411.024C953.717 411.533 952.994 411.983 952.642 412.492C951.723 413.803 950.526 415.094 950.116 416.464C948.884 420.671 948.786 425.015 946.711 429.085C943.619 435.19 942.543 441.354 942.838 447.557C943.33 458.085 943.422 468.613 948.162 479.023C952.093 487.711 953.931 496.654 956.809 505.479C957.277 506.946 958.433 508.336 959.179 509.764C962.971 517.083 966.728 524.401 970.485 531.72C971.035 532.776 971.329 533.872 971.977 534.928C974.751 539.468 977.613 544.047 980.584 548.822C983.208 550.935 985.474 553.538 987.196 556.375C989.427 560.054 990.855 564.261 992.578 568.174C994.323 572.108 996.416 575.865 998.977 579.307C1001.56 582.457 1004.2 585.59 1006.18 589.151C1007.12 590.833 1007.65 592.596 1007.86 594.336C1009.41 597.099 1011.03 599.833 1012.64 602.596C1013.3 603.712 1014.06 604.827 1014.67 605.96C1018.57 613.238 1022.58 620.521 1026.24 627.839C1028.31 632.006 1029.78 636.272 1031.48 640.497C1032.13 642.104 1032.91 643.729 1033.26 645.353C1034.26 649.971 1035.02 654.584 1035.92 659.226C1037.9 669.168 1040.91 679.087 1038.8 689.145C1038.03 692.746 1037.62 696.364 1036.7 699.965C1035.57 704.387 1034.12 708.792 1032.72 713.191C1032.17 714.896 1031.6 716.618 1030.54 718.243C1027.21 723.329 1022.93 728.243 1020.39 733.427C1017.59 739.121 1012.25 744.034 1006.94 749.023C1005.4 750.468 1004.79 752.271 1004.32 753.971C1003.91 755.462 1005.36 756.225 1008.47 756.225C1019.68 756.26 1030.9 756.398 1042.1 756.578C1048.6 756.676 1051.4 755.618 1053.26 752.19C1053.65 751.45 1054.46 750.763 1055.14 750.08C1057 748.179 1058.9 746.283 1060.77 744.364C1061.52 743.601 1062.22 742.838 1062.96 742.098C1064.47 740.531 1066.1 738.982 1067.44 737.358C1068.35 736.283 1068.81 735.127 1069.54 734.011C1071.24 731.37 1073.02 728.769 1074.7 726.127C1075.28 725.248 1075.11 724.075 1076.16 723.445C1081.32 720.335 1080.97 716.48 1081.63 712.745C1081.85 711.491 1081.77 710.139 1082.67 709.023C1087.84 702.722 1088.62 696.069 1088.6 689.341C1088.56 680.827 1088.76 672.318 1088.62 663.804C1088.54 661.769 1087.85 659.578 1087.17 657.422Z" fill="black"/>
<path d="M767.642 638.7C767.55 636.567 765.573 634.451 764.556 632.318C763.359 629.839 762.226 627.33 761.168 624.827C760.053 622.168 759.272 619.446 757.96 616.804C756.96 614.787 755.18 612.908 754.122 610.897C752.949 608.642 753.105 606.024 751.03 604.087C748.585 601.793 747.764 599.469 746.787 597.001C745.868 594.694 743.81 592.498 742.342 590.249C741.579 589.076 741.012 587.862 740.365 586.671C739.215 584.498 738.174 582.307 736.845 580.174C735.845 578.567 734.319 577.061 733.325 575.456C731.955 573.246 730.955 570.956 729.625 568.745C728.706 567.199 727.354 565.731 726.435 564.185C722.972 558.394 719.608 552.581 716.203 546.79C716.065 546.574 715.729 546.379 715.596 546.163C712.209 540.841 708.787 535.538 705.475 530.215C705.065 529.57 705.342 528.787 705.088 528.102C704.36 526.185 704.556 523.797 702.504 522.447C698.377 519.747 698.469 516.635 697.493 513.582C697.065 512.271 697.007 510.765 695.735 509.708C691.25 505.99 691.232 501.822 690.585 497.674C690.256 495.58 689.683 493.349 688.042 491.471C684.071 486.95 684.146 482.157 683.504 477.381C683.348 476.286 683.128 475.19 682.857 474.094C680.313 464.017 678.1 453.978 679.707 443.725C681.724 430.829 685.753 418.169 691.938 405.704C692.267 405.039 693.111 404.452 693.678 403.825C694.851 402.495 696.4 401.223 697.065 399.814C698.394 397.035 698.394 394.042 702.897 391.889C703.949 391.38 704.03 390.304 704.579 389.482C705.221 388.523 705.342 387.232 706.591 386.645C712.053 384.082 711.897 380.246 714.481 377.057C714.654 376.841 714.458 376.45 714.105 376.078C716.435 373.476 719.099 370.951 721.544 368.368C721.602 368.309 721.776 368.271 721.839 368.192C723.203 366.842 724.966 365.551 725.828 364.103C728.648 359.445 733.989 355.219 734.359 350.111C734.377 349.896 734.614 349.642 734.908 349.466C739.781 346.804 739.527 343.302 740.192 339.955C740.504 338.39 740.209 336.688 741.325 335.298C746.55 328.821 747.313 322.031 747.273 315.124C747.215 306.768 747.353 298.413 747.336 290.057C747.336 288.414 747.567 286.692 746.903 285.107C744.145 278.356 739.995 271.781 739.683 264.756C739.585 262.623 737.608 260.51 736.59 258.377C735.4 255.891 734.261 253.387 733.203 250.882C732.088 248.221 731.307 245.501 729.995 242.859C729.001 240.843 727.215 238.965 726.163 236.95C724.989 234.7 725.146 232.077 723.07 230.14C720.625 227.85 719.799 225.522 718.822 223.056C717.903 220.748 715.851 218.556 714.383 216.305C713.62 215.131 713.053 213.918 712.406 212.725C711.25 210.552 710.215 208.361 708.88 206.228C707.886 204.623 706.36 203.117 705.36 201.512C703.99 199.301 702.99 197.011 701.66 194.8C700.741 193.254 699.394 191.787 698.469 190.241C695.007 184.448 691.643 178.637 688.238 172.845C688.1 172.629 687.77 172.434 687.631 172.218C684.244 166.896 680.822 161.593 677.516 156.271C677.105 155.625 677.377 154.842 677.123 154.157C676.4 152.24 676.597 149.852 674.539 148.502C670.412 145.802 670.51 142.69 669.533 139.638C669.1 138.327 669.042 136.82 667.77 135.763C663.29 132.045 663.267 127.878 662.626 123.729C662.291 121.636 661.724 119.404 660.082 117.526C656.106 113.006 656.186 108.211 655.539 103.437C655.383 102.342 655.169 101.246 654.892 100.15C652.348 90.0723 650.14 80.0336 651.741 69.78C653.759 56.8849 657.788 44.2244 663.973 31.7596C664.308 31.0942 665.146 30.5072 665.718 29.881C666.892 28.5504 668.435 27.2785 669.1 25.8695C670.429 23.0909 670.429 20.097 674.932 17.9445C675.99 17.4357 676.065 16.3595 676.614 15.5377C677.261 14.5788 677.377 13.2873 678.631 12.7003C684.088 10.1369 683.932 6.30154 686.516 3.11198C686.886 2.66191 685.654 1.46826 684.597 1.11604C683.365 0.685537 681.527 0.66597 679.944 0.66597C669.435 0.66597 658.926 0.607266 648.435 0.802946C646.071 0.842085 643.447 1.58567 641.452 2.36839C634.776 5.01007 633.25 9.49117 629.591 13.1308C625.603 17.1031 620.771 21.1146 619.869 25.8695C619.828 26.0848 619.476 26.3001 619.32 26.5153C615.915 31.4856 611.748 36.358 609.337 41.4849C606.482 47.5509 604.857 53.8127 603.175 60.0355C599.886 72.2262 601.788 84.4365 603.707 96.6277C604.372 100.835 606.58 104.983 608.031 109.151C609.557 113.554 611.002 117.956 612.551 122.34C613.094 123.886 613.742 125.412 614.406 126.958C617.401 133.983 620.395 141.008 623.429 148.033C623.666 148.561 624.25 149.05 624.545 149.579C626.169 152.513 627.713 155.449 629.337 158.364C630.042 159.637 630.805 160.908 631.551 162.18C633.955 166.25 636.401 170.34 638.927 174.567C640.002 175.369 641.002 176.23 641.921 177.169C646.736 182.1 649.256 188.265 651.822 194.487C654.58 200.788 658.458 206.443 661.626 212.49C662.897 213.174 663.701 214.114 664.054 215.307C664.562 216.99 665.62 218.634 666.539 220.278C668.082 223.037 669.707 225.796 671.314 228.555C672.053 229.827 672.88 231.079 673.545 232.371C677.418 239.748 681.348 247.105 685.048 254.502C686.146 256.694 686.458 259.003 687.377 261.233C688.828 264.756 691.053 268.239 691.938 271.8C693.718 278.982 694.365 286.241 696.319 293.403C699.117 303.657 698.296 313.852 695.99 324.047C694.874 328.958 693.562 333.87 691.429 338.664C688.805 344.593 686.186 350.6 681.857 356.178C678.377 360.678 677.302 365.746 671.273 369.719C668.944 371.245 667.36 373.163 665.973 375.022C664.637 376.783 663.678 378.642 663.192 380.52C661.117 382.672 659.689 385.041 657.597 387.134C653.603 391.106 648.77 395.118 647.869 399.873C647.828 400.088 647.476 400.303 647.319 400.518C643.915 405.489 639.747 410.381 637.343 415.488C634.487 421.554 632.863 427.816 631.175 434.038C627.892 446.23 629.788 458.44 631.707 470.631C632.372 474.838 634.585 478.986 636.031 483.154C637.557 487.557 639.007 491.96 640.551 496.343C641.1 497.889 641.747 499.415 642.412 500.961C645.406 507.986 648.4 515.011 651.429 522.036C651.666 522.564 652.25 523.053 652.545 523.582C654.169 526.517 655.718 529.452 657.343 532.368C658.042 533.64 658.811 534.912 659.551 536.183C662.233 540.684 664.915 545.205 667.712 549.901C668.707 550.762 669.666 551.662 670.527 552.64C673.192 555.673 675.579 559.02 677.302 562.679C678.944 566.142 680.157 569.723 681.504 573.265C682.267 574.889 683.169 576.474 684.209 577.942C686.967 581.29 689.805 584.539 691.602 588.429C691.758 588.706 691.955 588.978 692.053 589.29C692.562 590.972 693.62 592.619 694.539 594.261C696.082 597.018 697.706 599.781 699.313 602.538C700.059 603.81 700.88 605.064 701.544 606.353C705.417 613.729 709.354 621.087 713.053 628.486C714.146 630.677 714.458 632.989 715.377 635.22C716.828 638.74 719.059 642.22 719.937 645.787C721.718 652.966 722.365 660.226 724.319 667.388C727.122 677.642 726.296 687.838 723.989 698.029C722.874 702.942 721.562 707.855 719.429 712.647C716.81 718.578 714.186 724.584 709.862 730.162C706.377 734.665 705.302 739.728 699.273 743.705C696.943 745.231 695.36 747.144 693.972 749.005C692.62 750.803 691.626 752.705 691.152 754.624C691.036 755.15 693.348 756.364 694.62 756.381C706.4 756.635 718.215 756.716 730.018 756.832C735.434 756.872 737.943 755.445 739.955 752.763C742.654 749.202 746.319 745.838 749.585 742.393C749.642 742.335 749.816 742.295 749.879 742.214C751.249 740.867 753.007 739.572 753.868 738.127C756.689 733.468 762.03 729.243 762.4 724.133C762.423 723.919 762.654 723.665 762.949 723.491C767.821 720.826 767.567 717.324 768.232 713.977C768.544 712.41 768.249 710.711 769.348 709.324C774.573 702.844 775.336 696.052 775.295 689.145C775.238 680.792 775.376 672.434 775.353 664.081C775.353 662.434 775.59 660.717 774.925 659.128C772.105 652.318 767.978 645.723 767.642 638.7Z" fill="black"/>
<path d="M563.537 638.742C563.439 636.609 561.463 634.499 560.446 632.366C559.252 629.88 558.117 627.372 557.06 624.869C555.945 622.21 555.162 619.487 553.851 616.846C552.853 614.828 551.072 612.95 550.016 610.938C548.842 608.684 548.998 606.065 546.924 604.129C544.478 601.84 543.656 599.511 542.678 597.042C541.758 594.736 539.703 592.545 538.235 590.291C537.472 589.118 536.905 587.904 536.259 586.713C535.105 584.54 534.068 582.349 532.737 580.216C531.739 578.609 530.213 577.103 529.215 575.499C527.845 573.288 526.847 570.998 525.516 568.787C524.597 567.241 523.247 565.773 522.327 564.228C518.863 558.436 515.497 552.624 512.093 546.832C511.956 546.616 511.623 546.421 511.486 546.206C508.101 540.883 504.677 535.58 501.37 530.257C500.959 529.612 501.233 528.829 500.978 528.144C500.254 526.227 500.45 523.839 498.395 522.489C494.266 519.789 494.364 516.677 493.386 513.625C492.955 512.314 492.896 510.807 491.625 509.751C487.143 506.032 487.124 501.865 486.478 497.716C486.146 495.622 485.578 493.391 483.935 491.513C479.962 486.993 480.041 482.199 479.395 477.424C479.238 476.328 479.023 475.232 478.749 474.136C476.205 464.059 473.994 454.02 475.598 443.767C477.614 430.871 481.645 418.211 487.828 405.746C488.161 405.081 489.003 404.494 489.57 403.868C490.744 402.537 492.29 401.265 492.955 399.857C494.286 397.077 494.286 394.084 498.787 391.931C499.843 391.423 499.921 390.346 500.469 389.524C501.115 388.565 501.233 387.274 502.485 386.687C507.944 384.124 507.788 380.289 510.371 377.099C510.547 376.883 510.351 376.492 509.999 376.12C512.328 373.518 514.989 370.994 517.435 368.411C517.493 368.352 517.67 368.313 517.729 368.234C519.098 366.884 520.859 365.593 521.721 364.145C524.538 359.488 529.88 355.261 530.252 350.154C530.271 349.939 530.506 349.684 530.8 349.508C535.672 346.847 535.418 343.344 536.083 339.998C536.396 338.432 536.102 336.73 537.218 335.341C542.443 328.864 543.206 322.073 543.167 315.166C543.108 306.811 543.245 298.455 543.226 290.1C543.226 288.456 543.46 286.734 542.815 285.149C540.056 278.398 535.907 271.823 535.594 264.798C535.496 262.665 533.52 260.552 532.503 258.419C531.309 255.933 530.174 253.429 529.117 250.924C528.001 248.263 527.219 245.543 525.908 242.901C524.91 240.886 523.129 239.008 522.073 236.992C520.899 234.742 521.055 232.119 518.981 230.182C516.535 227.893 515.713 225.564 514.734 223.098C513.815 220.79 511.76 218.598 510.293 216.348C509.529 215.174 508.962 213.96 508.316 212.767C507.162 210.594 506.125 208.403 504.794 206.27C503.796 204.666 502.27 203.159 501.272 201.554C499.902 199.343 498.904 197.054 497.573 194.843C496.654 193.296 495.303 191.829 494.384 190.283C490.92 184.491 487.554 178.679 484.15 172.887C484.013 172.672 483.68 172.476 483.543 172.261C480.158 166.938 476.734 161.635 473.427 156.313C473.016 155.667 473.29 154.884 473.035 154.2C472.311 152.282 472.506 149.895 470.452 148.545C466.323 145.844 466.421 142.733 465.443 139.68C465.012 138.369 464.953 136.862 463.682 135.805C459.201 132.088 459.181 127.92 458.535 123.771C458.203 121.678 457.635 119.447 455.992 117.569C452.019 113.048 452.097 108.254 451.452 103.479C451.295 102.384 451.08 101.288 450.806 100.192C448.262 90.1145 446.051 80.0758 447.655 69.8221C449.671 56.9271 453.702 44.2666 459.885 31.8018C460.218 31.1365 461.06 30.5494 461.627 29.9232C462.801 28.5926 464.347 27.3207 465.012 25.9118C466.343 23.1331 466.343 20.1392 470.843 17.9867C471.9 17.478 471.978 16.4017 472.526 15.5799C473.172 14.621 473.29 13.3296 474.542 12.7425C480.001 10.1791 479.845 6.34377 482.428 3.15421C482.799 2.70415 481.566 1.5105 480.51 1.15827C479.277 0.727773 477.438 0.708207 475.853 0.708207C465.345 0.708207 454.837 0.649502 444.348 0.845182C441.981 0.884315 439.359 1.6279 437.363 2.41062C430.69 5.0523 429.163 9.5334 425.504 13.173C421.513 17.1453 416.679 21.1568 415.779 25.9118C415.74 26.127 415.388 26.3423 415.231 26.5575C411.827 31.5278 407.658 36.4002 405.251 41.5271C402.395 47.5932 400.771 53.8549 399.087 60.0777C395.8 72.2684 397.698 84.4787 399.616 96.6699C400.281 100.877 402.493 105.025 403.94 109.194C405.466 113.596 406.915 117.999 408.461 122.382C409.009 123.928 409.654 125.454 410.32 127C413.313 134.025 416.307 141.05 419.34 148.075C419.575 148.603 420.162 149.093 420.456 149.621C422.08 152.556 423.626 155.491 425.25 158.407C425.954 159.679 426.718 160.95 427.461 162.223C429.868 166.293 432.314 170.383 434.839 174.609C435.915 175.412 436.913 176.272 437.832 177.211C442.646 182.143 445.17 188.307 447.734 194.529C450.493 200.83 454.367 206.485 457.537 212.532C458.809 213.217 459.611 214.156 459.964 215.35C460.472 217.033 461.529 218.676 462.449 220.32C463.994 223.079 465.619 225.838 467.223 228.597C467.967 229.869 468.789 231.121 469.454 232.413C473.328 239.79 477.262 247.147 480.96 254.544C482.056 256.736 482.369 259.045 483.288 261.276C484.737 264.798 486.968 268.281 487.848 271.843C489.629 279.024 490.275 286.284 492.231 293.445C495.029 303.699 494.207 313.894 491.899 324.089C490.783 329.001 489.472 333.912 487.339 338.706C484.717 344.636 482.095 350.643 477.771 356.22C474.287 360.721 473.211 365.789 467.185 369.761C464.856 371.287 463.271 373.205 461.881 375.064C460.55 376.825 459.592 378.684 459.102 380.563C457.029 382.715 455.6 385.083 453.506 387.176C449.514 391.149 444.681 395.16 443.781 399.915C443.742 400.131 443.389 400.346 443.233 400.561C439.828 405.531 435.66 410.423 433.254 415.53C430.396 421.596 428.772 427.858 427.089 434.081C423.802 446.272 425.7 458.482 427.618 470.673C428.283 474.88 430.494 479.028 431.942 483.196C433.469 487.599 434.917 492.002 436.462 496.385C437.01 497.931 437.656 499.458 438.321 501.003C441.315 508.028 444.309 515.053 447.342 522.078C447.577 522.607 448.164 523.096 448.457 523.624C450.082 526.559 451.627 529.494 453.252 532.41C453.956 533.682 454.719 534.954 455.463 536.226C458.144 540.727 460.824 545.247 463.623 549.943C464.621 550.804 465.58 551.704 466.441 552.683C469.102 555.716 471.489 559.062 473.211 562.721C474.855 566.184 476.068 569.765 477.419 573.307C478.182 574.932 479.082 576.517 480.119 577.984C482.878 581.332 485.715 584.58 487.516 588.47C487.672 588.748 487.868 589.019 487.965 589.332C488.474 591.014 489.531 592.661 490.451 594.303C491.996 597.066 493.621 599.823 495.225 602.58C495.969 603.852 496.791 605.106 497.456 606.395C501.33 613.776 505.263 621.129 508.962 628.528C510.058 630.718 510.371 633.031 511.291 635.262C512.739 638.782 514.969 642.267 515.85 645.828C517.63 653.007 518.276 660.267 520.233 667.429C522.699 676.47 522.347 685.469 520.644 694.469C519.352 697.192 518.589 700.244 518.511 703.591C517.67 706.643 516.672 709.695 515.36 712.689C515.185 713.122 514.989 713.533 514.793 713.961C511.486 715.608 508.042 714.845 502.837 716.741C497.828 718.562 492.094 716.134 487.3 714.648C483.23 713.377 475.501 711.787 475.931 709.111C480.96 702.729 481.723 696.036 481.684 689.227C481.625 680.874 481.762 672.516 481.743 664.163C481.743 662.516 481.977 660.793 481.332 659.21C478.573 652.458 474.424 645.886 474.111 638.863C474.013 636.73 472.037 634.614 471.02 632.481C469.826 629.996 468.691 627.493 467.634 624.984C466.519 622.325 465.736 619.603 464.425 616.961C463.427 614.95 461.646 613.071 460.59 611.054C459.416 608.805 459.572 606.181 457.498 604.245C455.052 601.956 454.23 599.626 453.252 597.158C452.332 594.852 450.278 592.661 448.81 590.412C448.046 589.233 447.479 588.025 446.833 586.829C445.679 584.655 444.642 582.465 443.311 580.332C442.313 578.73 440.787 577.221 439.789 575.616C438.419 573.405 437.421 571.115 436.091 568.904C435.171 567.359 433.821 565.891 432.901 564.345C429.437 558.553 426.072 552.741 422.667 546.949C422.53 546.734 422.198 546.538 422.061 546.323C418.675 541.001 415.251 535.698 411.944 530.375C411.533 529.729 411.807 528.946 411.553 528.261C410.828 526.344 411.024 523.957 408.969 522.607C404.84 519.906 404.938 516.795 403.96 513.742C403.53 512.431 403.471 510.925 402.199 509.868C397.718 506.15 397.698 501.982 397.053 497.833C396.72 495.74 396.152 493.509 394.509 491.63C390.537 487.11 390.615 482.316 389.969 477.542C389.812 476.446 389.597 475.35 389.323 474.254C386.779 464.176 384.568 454.138 386.172 443.885C388.188 430.989 392.219 418.329 398.403 405.864C398.735 405.198 399.577 404.612 400.144 403.985C401.319 402.655 402.864 401.383 403.53 399.974C404.86 397.195 404.86 394.201 409.361 392.049C410.417 391.54 410.496 390.464 411.044 389.642C411.69 388.683 411.807 387.391 413.059 386.805C418.518 384.241 418.362 380.406 420.945 377.216C421.121 377.001 420.925 376.609 420.573 376.238C422.902 373.635 425.563 371.111 428.009 368.528C428.068 368.469 428.244 368.43 428.303 368.352C429.672 367.002 431.433 365.71 432.295 364.262C435.113 359.605 440.454 355.378 440.826 350.271C440.846 350.056 441.081 349.802 441.374 349.625C446.247 346.964 445.992 343.461 446.657 340.115C446.97 338.55 446.677 336.847 447.773 335.458C452.997 328.981 453.76 322.191 453.722 315.283C453.663 306.928 453.8 298.572 453.78 290.217C453.78 288.573 454.015 286.851 453.35 285.266C450.59 278.515 446.442 271.94 446.129 264.915C446.031 262.783 444.055 260.669 443.037 258.536C441.844 256.051 440.709 253.546 439.652 251.042C438.537 248.38 437.754 245.661 436.443 243.019C435.445 241.003 433.664 239.125 432.607 237.109C431.433 234.859 431.59 232.237 429.516 230.3C427.07 228.01 426.248 225.682 425.27 223.216C424.35 220.907 422.295 218.715 420.828 216.465C420.065 215.291 419.497 214.078 418.851 212.884C417.696 210.712 416.659 208.521 415.329 206.388C414.331 204.783 412.805 203.276 411.807 201.671C410.437 199.46 409.439 197.171 408.109 194.96C407.188 193.414 405.839 191.946 404.919 190.4C401.456 184.609 398.09 178.796 394.684 173.005C394.548 172.789 394.215 172.594 394.078 172.379C390.693 167.056 387.268 161.753 383.961 156.43C383.55 155.784 383.824 155.002 383.57 154.317C382.846 152.4 383.042 150.012 380.987 148.662C376.858 145.961 376.956 142.85 375.978 139.797C375.547 138.486 375.489 136.98 374.216 135.923C369.736 132.205 369.716 128.037 369.07 123.889C368.737 121.795 368.17 119.565 366.526 117.686C362.554 113.166 362.632 108.372 361.986 103.597C361.83 102.501 361.615 101.405 361.341 100.309C358.797 90.2318 356.586 80.1937 358.191 69.9401C360.206 57.0445 364.237 44.384 370.421 31.9192C370.753 31.2539 371.595 30.6668 372.162 30.0406C373.336 28.71 374.882 27.4381 375.547 26.0292C376.878 23.2505 376.878 20.2567 381.378 18.1041C382.435 17.5954 382.513 16.5191 383.061 15.6973C383.707 14.7384 383.824 13.447 385.077 12.86C390.537 10.2965 390.38 6.46117 392.963 3.27161C393.335 2.82154 392.102 1.6279 391.045 1.27568C389.812 0.845182 387.973 0.82561 386.388 0.82561C375.88 0.82561 365.372 0.766911 354.884 0.962592C352.515 1.00173 349.894 1.74531 347.898 2.52803C341.225 5.16971 339.699 9.6508 336.039 13.2904C332.047 17.2628 327.214 21.2742 326.314 26.0292C326.275 26.2444 325.923 26.4597 325.767 26.6749C322.361 31.6452 318.193 36.5176 315.786 41.6445C312.93 47.7106 311.305 53.9723 309.623 60.195C306.335 72.3857 308.233 84.596 310.151 96.7872C310.816 100.994 313.027 105.143 314.475 109.311C316.002 113.714 317.45 118.116 318.995 122.499C319.543 124.045 320.189 125.571 320.854 127.118C323.849 134.142 326.842 141.167 329.876 148.192C330.11 148.72 330.697 149.21 330.991 149.738C332.615 152.674 334.161 155.609 335.785 158.524C336.49 159.796 337.253 161.068 337.996 162.34C340.403 166.41 342.849 170.5 345.373 174.727C346.45 175.529 347.448 176.39 348.367 177.329C353.181 182.26 355.705 188.424 358.269 194.647C361.028 200.948 364.902 206.603 368.072 212.649C369.344 213.334 370.147 214.274 370.499 215.467C371.007 217.15 372.064 218.794 372.984 220.437C374.53 223.197 376.154 225.956 377.759 228.715C378.502 229.986 379.324 231.239 379.989 232.53C383.864 239.908 387.797 247.265 391.495 254.662C392.591 256.854 392.904 259.162 393.824 261.393C395.272 264.915 397.502 268.399 398.383 271.96C400.164 279.141 400.809 286.401 402.766 293.563C405.565 303.816 404.743 314.012 402.434 324.206C401.319 329.118 400.007 334.029 397.874 338.824C395.252 344.753 392.63 350.76 388.305 356.337C384.823 360.838 383.746 365.906 377.719 369.878C375.391 371.404 373.805 373.322 372.416 375.181C371.086 376.942 370.127 378.801 369.638 380.68C367.563 382.832 366.135 385.2 364.041 387.294C360.049 391.266 355.216 395.277 354.316 400.032C354.277 400.248 353.925 400.463 353.768 400.678C350.363 405.649 346.195 410.54 343.788 415.648C340.931 421.714 339.307 427.975 337.624 434.198C334.337 446.389 336.235 458.6 338.153 470.79C338.818 474.998 341.029 479.146 342.477 483.314C344.003 487.717 345.452 492.12 346.998 496.503C347.546 498.048 348.191 499.575 348.857 501.121C351.85 508.146 354.844 515.171 357.877 522.196C358.112 522.724 358.699 523.213 358.993 523.741C360.617 526.676 362.163 529.612 363.787 532.527C364.491 533.8 365.255 535.071 365.998 536.343C368.679 540.844 371.36 545.364 374.158 550.061C375.156 550.921 376.115 551.821 376.976 552.8C379.637 555.833 382.024 559.179 383.746 562.838C385.39 566.302 386.603 569.883 387.953 573.425C388.716 575.049 389.617 576.634 390.654 578.1C393.413 581.447 396.25 584.696 398.05 588.592C398.207 588.863 398.403 589.135 398.501 589.453C399.009 591.135 400.066 592.777 400.986 594.424C402.531 597.181 404.156 599.938 405.76 602.696C406.504 603.973 407.325 605.222 407.991 606.516C411.865 613.892 415.799 621.25 419.497 628.643C420.593 630.84 420.906 633.146 421.825 635.377C423.274 638.898 425.505 642.383 426.385 645.944C428.166 653.123 428.811 660.383 430.768 667.545C432.999 675.689 433.625 677.724 432.353 685.822C430.377 689.03 431.512 695.059 431.844 699.99C431.022 702.926 429.105 709.4 430.24 712.336C432.451 718.128 436.013 725.036 439.613 731.122C445.131 740.458 450.806 747.914 452.019 746.66C455.209 749.064 459.024 750.533 462.214 752.983C468.574 757.874 477.731 757.793 485.558 760.417C491.82 762.509 503.776 761.532 511.545 760.654C517.592 759.966 520.8 756.833 526.651 756.972C532.17 754.469 533.989 755.486 535.946 752.92C535.966 752.902 535.985 752.885 535.985 752.862C548.411 746.209 557.999 735.723 561.757 721.475C563.733 719.226 563.713 716.66 564.222 714.157C564.535 712.591 564.242 710.891 565.357 709.498C570.581 703.024 571.345 696.232 571.306 689.325C571.247 680.972 571.384 672.614 571.364 664.262C571.364 662.614 571.599 660.892 570.954 659.308C567.999 652.36 563.85 645.77 563.537 638.742Z" fill="black"/>
<path d="M700.892 36.1636C700.522 36.9665 701.95 37.3385 701.563 38.1415C701.285 38.7094 702.58 39.8648 702.089 40.3935C701.089 41.5294 701.696 43.5857 701.129 44.7998C699.996 47.189 700.089 48.0115 696.996 50.8119C696.251 51.4777 696.019 52.1827 695.545 52.8681C695.002 53.6906 694.881 54.7873 693.823 55.2965C689.123 57.4898 689.279 60.78 687.066 63.5412C686.753 63.9326 687.811 64.951 688.713 65.2643C689.771 65.6366 691.355 65.6562 692.707 65.6562C701.719 65.6562 710.748 65.7146 719.753 65.5383C721.788 65.4996 724.025 64.873 725.747 64.1875C731.481 61.9158 732.776 58.0771 735.909 54.944C739.337 51.5365 743.487 48.0898 744.25 44.0165C744.291 43.8206 744.585 43.664 744.724 43.4681C745.464 42.391 746.25 41.2944 747.03 40.2173C733.932 39.336 714.112 37.2602 700.892 36.1636Z" fill="black"/>
<path d="M679.362 31.9445C680.263 31.9053 698.338 33.2762 699.165 33.1391C700.414 32.532 699.437 35.9004 700.922 36.2137C720.824 40.4437 728.633 39.3275 747.084 40.4437C746.517 37.467 744.968 27.1857 745.124 24.3266C745.396 19.2153 741.402 14.6524 738.488 11.2058C734.373 9.05155 730.673 4.19491 725.853 2.02115C720.275 -0.485515 681.535 -0.309262 675.367 0.669903C669.709 1.57074 658.564 21.7416 658.564 21.7416C624.356 33.8637 675.269 32.5907 679.362 31.9445Z" fill="black"/>
<path d="M680.787 720.619C681.163 719.816 679.729 719.446 680.122 718.642C680.394 718.076 679.105 716.92 679.596 716.388C680.59 715.255 679.983 713.197 680.556 711.983C681.689 709.596 681.59 708.769 684.683 705.972C685.428 705.307 685.665 704.602 686.134 703.914C686.683 703.093 686.798 701.995 687.856 701.486C692.556 699.295 692.399 696.001 694.613 693.243C694.925 692.85 693.868 691.833 692.966 691.521C691.914 691.145 690.324 691.128 688.972 691.128C679.966 691.128 670.937 691.07 661.931 691.243C659.891 691.284 657.66 691.908 655.937 692.596C650.197 694.868 648.908 698.706 645.776 701.839C642.348 705.249 638.192 708.694 637.429 712.764C637.394 712.96 637.099 713.116 636.961 713.313C636.215 714.394 635.435 715.486 634.648 716.567C647.752 717.446 667.567 719.521 680.787 720.619Z" fill="black"/>
<path d="M702.353 724.855C701.451 724.896 683.376 723.526 682.555 723.659C681.301 724.272 682.278 720.902 680.792 720.59C660.897 716.358 653.082 717.474 634.637 716.358C635.203 719.335 636.747 729.613 636.59 732.474C636.319 737.584 640.313 742.15 643.232 745.595C647.342 747.751 651.047 752.607 655.862 754.78C661.446 757.289 700.18 757.11 706.347 756.133C712.006 755.231 723.151 735.058 723.151 735.058C757.364 722.96 706.445 724.208 702.353 724.855Z" fill="black"/>
</svg>
